<?xml version="1.0" standalone="no"?>
<!DOCTYPE svg PUBLIC "-//W3C//DTD SVG 20010904//EN"
 "http://www.w3.org/TR/2001/REC-SVG-20010904/DTD/svg10.dtd">
<svg version="1.0" xmlns="http://www.w3.org/2000/svg"
 width="900.000000pt" height="300.000000pt" viewBox="0 0 900.000000 300.000000"
 preserveAspectRatio="xMidYMid meet">
<metadata>
Created by potrace 1.15, written by Peter Selinger 2001-2017
</metadata>
<g transform="translate(0.000000,300.000000) scale(0.100000,-0.100000)"
fill="#000000" stroke="none">
<path d="M7340 2866 c0 -74 3 -141 6 -150 3 -9 18 -16 33 -16 14 0 37 -9 51
-19 20 -16 22 -21 11 -35 -12 -14 -10 -16 12 -16 30 0 51 -23 44 -50 -4 -16 0
-20 23 -20 33 0 54 -22 45 -49 -5 -17 -1 -20 27 -23 28 -2 34 -7 36 -30 2 -20
9 -28 22 -28 26 0 53 -29 47 -51 -4 -15 1 -19 24 -19 31 0 53 -28 43 -54 -4
-11 3 -15 28 -18 29 -3 33 -7 36 -35 3 -29 7 -33 32 -33 29 0 44 -21 38 -51
-2 -9 8 -15 29 -17 32 -3 52 -30 38 -52 -4 -6 6 -10 23 -10 30 0 42 -14 42
-51 0 -14 7 -19 30 -19 23 0 31 -5 36 -24 3 -14 3 -30 -1 -35 -4 -7 7 -11 29
-11 36 0 53 -21 40 -53 -4 -12 2 -16 28 -19 28 -2 34 -7 36 -30 3 -22 9 -28
27 -28 26 0 50 -32 41 -56 -4 -10 2 -14 22 -14 19 0 39 -12 62 -35 l34 -35
-2957 0 c-2919 0 -2957 0 -2957 -19 0 -19 13 -20 571 -21 315 0 576 -3 582 -7
13 -8 4759 -5 4803 3 19 3 34 11 34 16 0 5 -24 35 -54 66 -30 31 -94 100 -142
152 -212 232 -256 278 -363 383 -100 99 -410 427 -514 545 -44 50 -44 52 41
141 l58 61 -88 0 -88 0 0 -134z"/>
<path d="M7728 2833 c89 -93 222 -235 295 -317 161 -183 259 -287 487 -522
295 -304 445 -464 448 -480 5 -19 -103 -137 -363 -398 -115 -116 -299 -306
-408 -421 -109 -116 -222 -234 -250 -264 -29 -29 -59 -65 -68 -78 -9 -14 -86
-94 -170 -179 l-153 -154 67 0 c53 0 67 3 67 15 0 8 11 17 24 21 16 4 23 11
19 20 -8 20 15 44 43 44 19 0 22 5 21 27 -2 22 4 29 28 38 23 8 29 15 27 32
-2 16 4 24 31 34 27 9 33 16 29 34 -3 19 3 25 32 35 20 6 36 17 35 23 -3 28 3
36 32 42 24 6 30 11 26 26 -7 25 18 49 48 49 20 0 23 5 22 27 -2 23 3 28 28
33 24 4 31 11 35 35 4 24 11 31 35 35 25 4 29 10 30 35 0 26 4 30 32 33 28 3
32 7 35 35 3 28 7 32 36 35 28 3 32 6 27 23 -8 26 11 49 41 49 18 0 23 6 26
32 3 29 7 33 36 36 18 2 32 9 31 15 -4 33 3 45 30 50 23 5 30 12 33 34 2 23 8
29 35 31 28 3 32 7 35 35 3 28 7 32 36 35 25 3 32 7 28 18 -10 26 12 54 43 54
24 0 28 3 24 20 -7 26 13 50 43 50 17 0 23 6 26 27 2 24 8 29 36 31 26 3 32 7
27 21 -10 33 5 51 42 51 21 0 32 4 28 11 -13 19 4 59 25 59 19 0 20 7 20 100
0 93 -1 100 -20 100 -21 0 -38 40 -25 59 4 7 -7 11 -28 11 -37 0 -52 18 -42
51 5 14 -1 18 -27 21 -28 2 -34 7 -36 31 -3 21 -9 27 -26 27 -30 0 -50 24 -43
50 4 17 0 20 -24 20 -31 0 -53 28 -43 54 4 11 -3 15 -28 18 -29 3 -33 7 -36
35 -3 28 -7 32 -35 35 -27 2 -33 8 -35 31 -3 22 -10 29 -33 34 -27 5 -34 17
-30 50 1 6 -13 13 -31 15 -29 3 -33 7 -36 36 -3 26 -8 32 -26 32 -30 0 -49 23
-41 49 5 17 1 20 -27 23 -29 3 -33 7 -36 35 -3 28 -7 32 -35 35 -28 3 -32 7
-32 33 -1 25 -5 31 -30 35 -24 4 -31 11 -35 35 -4 24 -11 31 -35 35 -25 5 -30
10 -28 33 1 22 -2 27 -22 27 -30 0 -55 24 -48 49 4 15 -2 20 -26 26 -29 6 -35
14 -32 42 1 6 -15 17 -35 23 -29 10 -35 16 -32 35 4 18 -2 25 -29 34 -27 10
-33 18 -31 34 2 17 -4 24 -27 32 -24 9 -30 16 -28 38 1 22 -2 27 -21 27 -28 0
-51 24 -43 44 4 9 -3 16 -19 20 -13 4 -24 13 -24 21 0 12 -13 15 -57 15 l-58
0 163 -167z"/>
<path d="M2558 1366 c-32 -4 -58 -12 -58 -17 0 -5 1245 -9 2957 -9 l2957 0
-34 -35 c-23 -23 -43 -35 -62 -35 -20 0 -26 -4 -22 -14 9 -24 -15 -56 -41 -56
-18 0 -24 -6 -27 -27 -2 -24 -8 -29 -36 -31 -26 -3 -32 -7 -28 -19 13 -32 -4
-53 -40 -53 -22 0 -33 -4 -29 -11 4 -5 4 -21 1 -35 -5 -19 -13 -24 -36 -24
-23 0 -30 -5 -30 -19 0 -37 -12 -51 -42 -51 -17 0 -27 -4 -23 -10 14 -22 -6
-49 -38 -52 -21 -2 -31 -8 -29 -17 6 -30 -9 -51 -38 -51 -25 0 -29 -4 -32 -32
-3 -29 -7 -33 -36 -36 -25 -3 -32 -7 -28 -18 10 -26 -12 -54 -43 -54 -23 0
-28 -4 -24 -19 6 -22 -21 -51 -47 -51 -13 0 -20 -8 -22 -28 -2 -23 -8 -28 -36
-30 -28 -3 -32 -6 -27 -23 9 -27 -12 -49 -45 -49 -23 0 -27 -4 -23 -20 7 -27
-14 -50 -44 -50 -22 0 -24 -2 -12 -16 11 -14 9 -19 -11 -35 -14 -10 -38 -19
-53 -19 -34 0 -39 -12 -35 -81 l3 -54 95 100 c52 55 165 172 251 260 85 88
216 224 291 302 75 78 158 161 183 184 26 24 53 54 60 68 8 15 65 79 128 143
63 65 114 118 113 119 -7 4 -1159 10 -1336 7 -73 -1 -904 -2 -1015 -1 -614 7
-3513 6 -3557 -1z"/>
</g>
</svg>
