<svg id="svg" version="1.1" xmlns="http://www.w3.org/2000/svg" xmlns:xlink="http://www.w3.org/1999/xlink" width="400" height="133.33333333333334" viewBox="0, 0, 400,133.33333333333334"><g id="svgg"><path id="path0" d="M326.025 6.097 C 326.077 11.502,326.114 12.216,326.356 12.393 C 326.505 12.502,326.656 12.740,326.691 12.921 C 326.742 13.192,326.954 13.276,327.891 13.396 C 328.721 13.503,329.144 13.650,329.455 13.938 C 329.690 14.155,329.984 14.333,330.108 14.333 C 330.870 14.333,331.174 15.278,330.588 15.829 C 330.049 16.335,330.139 16.431,331.272 16.564 C 332.783 16.742,333.937 18.330,333.136 19.131 C 332.841 19.426,333.037 19.520,334.168 19.622 C 335.758 19.767,336.739 20.855,336.140 21.814 C 335.786 22.381,336.067 22.617,337.252 22.744 C 338.704 22.900,339.007 23.189,339.051 24.467 L 339.083 25.417 339.945 25.467 C 340.440 25.495,340.892 25.619,341.007 25.758 C 341.117 25.891,341.292 26.000,341.396 26.000 C 341.709 26.000,342.032 26.955,341.973 27.700 C 341.909 28.492,342.108 28.619,343.470 28.650 C 344.204 28.667,344.667 28.951,344.667 29.384 C 344.667 29.517,344.779 29.719,344.917 29.833 C 345.218 30.084,345.234 30.396,344.968 30.822 C 344.625 31.372,345.053 31.667,346.192 31.667 C 346.914 31.667,347.203 31.733,347.273 31.917 C 347.326 32.054,347.473 32.167,347.601 32.167 C 347.774 32.167,347.833 32.423,347.833 33.167 C 347.833 34.529,348.138 34.833,349.500 34.833 C 350.339 34.833,350.501 34.880,350.505 35.125 C 350.508 35.285,350.621 35.562,350.755 35.740 C 351.042 36.119,351.078 36.766,350.821 36.924 C 350.396 37.187,351.365 37.833,352.182 37.833 C 353.514 37.833,354.149 38.516,353.951 39.735 C 353.829 40.490,354.061 40.667,355.181 40.667 C 356.297 40.667,356.667 41.036,356.667 42.150 C 356.667 43.249,356.906 43.666,357.538 43.669 C 358.688 43.672,359.333 43.861,359.333 44.194 C 359.333 44.368,359.446 44.554,359.583 44.606 C 359.886 44.723,359.934 46.085,359.641 46.266 C 359.209 46.533,360.076 46.833,361.282 46.833 C 362.470 46.833,362.500 46.844,362.500 47.250 C 362.500 47.479,362.582 47.667,362.683 47.667 C 362.802 47.667,362.845 48.029,362.808 48.708 L 362.750 49.750 363.911 49.899 C 365.327 50.081,365.538 50.273,365.635 51.476 C 365.724 52.576,365.815 52.661,366.902 52.664 C 368.108 52.668,368.713 53.366,368.637 54.667 L 368.583 55.583 369.727 55.730 C 370.861 55.876,370.881 55.887,372.111 57.105 C 372.793 57.781,373.441 58.352,373.550 58.375 C 373.660 58.398,314.655 58.454,242.427 58.500 L 111.105 58.583 110.964 59.126 C 110.585 60.586,109.774 60.530,131.667 60.576 C 141.521 60.597,152.246 60.668,155.500 60.736 C 170.101 61.037,178.608 61.079,190.667 60.909 C 196.081 60.833,197.782 60.859,198.500 61.031 C 199.141 61.184,200.444 61.237,202.833 61.205 C 204.713 61.181,207.881 61.162,209.875 61.164 C 214.212 61.167,229.075 61.167,242.167 61.163 C 245.604 61.162,251.829 61.119,256.000 61.068 C 260.171 61.017,266.658 60.982,270.417 60.989 C 287.574 61.023,297.647 61.026,309.000 61.001 C 316.999 60.984,322.291 61.044,324.250 61.174 C 326.582 61.328,328.474 61.328,332.750 61.171 C 335.775 61.060,341.550 60.993,345.583 61.021 C 356.396 61.097,376.116 60.779,376.778 60.518 C 377.862 60.091,377.635 59.391,375.966 58.012 C 374.726 56.988,373.055 55.217,372.337 54.167 C 371.730 53.280,371.177 52.660,368.247 49.583 C 365.220 46.406,364.637 45.750,364.349 45.203 C 364.239 44.994,363.871 44.619,363.532 44.370 C 362.643 43.717,358.667 39.505,358.667 39.216 C 358.667 39.007,357.235 37.541,354.295 34.739 C 353.399 33.885,348.144 28.654,345.853 26.335 C 344.902 25.371,343.369 23.758,342.447 22.750 C 341.526 21.742,339.631 19.716,338.238 18.248 C 336.845 16.780,335.378 15.193,334.977 14.721 C 334.577 14.250,333.425 12.970,332.417 11.877 C 328.943 8.113,328.350 7.368,328.339 6.748 C 328.326 5.992,333.052 0.764,334.008 0.478 C 335.302 0.090,334.607 0.000,330.316 0.000 L 325.966 0.000 326.025 6.097 M336.000 0.080 C 336.000 0.124,336.356 0.474,336.792 0.857 C 337.879 1.815,341.684 5.704,346.879 11.167 C 349.276 13.688,352.081 16.612,353.112 17.667 C 354.142 18.721,355.383 20.078,355.868 20.683 C 357.036 22.140,358.217 23.479,360.317 25.727 C 361.271 26.748,362.296 27.958,362.595 28.417 C 363.190 29.328,366.765 33.026,368.063 34.072 C 368.510 34.432,369.137 35.135,369.456 35.633 C 370.163 36.739,372.560 39.295,377.225 43.917 C 381.810 48.460,385.133 51.889,388.451 55.500 C 389.925 57.104,391.861 59.129,392.753 60.000 C 396.665 63.821,398.396 66.051,397.955 66.702 C 396.243 69.226,380.100 85.998,379.380 86.000 C 379.308 86.001,378.425 86.908,377.417 88.017 C 376.408 89.126,374.871 90.730,374.000 91.582 C 371.478 94.049,366.260 99.654,365.437 100.780 C 365.023 101.347,363.991 102.472,363.144 103.280 C 359.955 106.322,355.937 110.458,355.076 111.583 C 353.898 113.123,352.951 114.126,351.833 115.018 C 350.687 115.934,350.424 116.230,349.929 117.167 C 349.508 117.964,346.581 121.127,342.837 124.833 C 340.110 127.533,335.670 132.201,335.668 132.372 C 335.665 132.614,336.463 132.678,338.917 132.631 L 341.417 132.583 341.466 131.912 C 341.519 131.193,341.778 130.992,342.958 130.751 C 343.500 130.640,343.647 130.444,343.333 130.250 C 342.505 129.738,343.873 128.190,345.284 128.045 C 346.157 127.954,346.552 127.425,346.000 127.083 C 345.474 126.758,346.141 125.500,346.839 125.500 C 347.025 125.500,347.220 125.387,347.273 125.250 C 347.335 125.088,347.594 125.000,348.008 125.000 C 348.689 125.000,348.990 124.757,348.685 124.452 C 348.328 124.094,348.506 122.833,348.914 122.833 C 349.031 122.833,349.219 122.721,349.333 122.583 C 349.447 122.446,349.687 122.333,349.866 122.333 C 350.044 122.333,350.303 122.221,350.440 122.083 C 350.578 121.946,350.831 121.833,351.002 121.833 C 351.414 121.833,351.577 121.544,351.332 121.248 C 351.023 120.876,351.283 119.667,351.671 119.667 C 351.841 119.667,352.027 119.592,352.083 119.500 C 352.140 119.408,352.402 119.333,352.665 119.333 C 352.928 119.333,353.255 119.221,353.393 119.083 C 353.530 118.946,353.763 118.833,353.910 118.833 C 354.278 118.833,354.428 118.357,354.184 117.966 C 353.917 117.538,354.278 116.667,354.723 116.667 C 354.893 116.667,355.231 116.559,355.474 116.428 C 355.718 116.296,356.122 116.145,356.372 116.092 C 356.897 115.980,357.129 115.386,356.851 114.867 C 356.614 114.423,357.060 113.500,357.512 113.500 C 357.689 113.500,357.833 113.434,357.833 113.353 C 357.833 113.271,358.228 113.156,358.710 113.096 C 359.894 112.948,360.076 112.816,359.914 112.226 C 359.586 111.039,360.041 110.333,361.136 110.333 C 362.304 110.333,362.748 109.873,362.757 108.653 C 362.766 107.428,362.888 107.307,364.194 107.230 C 365.282 107.166,366.052 106.654,365.658 106.258 C 364.827 105.424,365.781 104.167,367.244 104.167 C 368.526 104.167,368.667 104.010,368.667 102.582 C 368.667 101.338,368.908 101.107,370.321 101.000 L 371.417 100.917 371.366 99.967 C 371.295 98.623,371.833 98.001,373.069 97.997 C 374.210 97.994,374.272 97.927,374.376 96.589 C 374.426 95.950,374.550 95.400,374.650 95.367 C 374.751 95.333,374.833 95.199,374.833 95.069 C 374.833 94.889,375.100 94.833,375.967 94.833 C 377.304 94.833,377.544 94.675,377.293 93.957 C 377.166 93.591,377.170 93.367,377.309 93.144 C 377.414 92.976,377.500 92.690,377.500 92.510 C 377.500 92.260,377.649 92.158,378.125 92.080 C 378.469 92.024,378.922 91.909,379.133 91.823 C 379.343 91.737,379.662 91.667,379.841 91.667 C 380.131 91.667,380.167 91.547,380.167 90.583 C 380.167 89.768,380.224 89.500,380.399 89.500 C 380.527 89.500,380.674 89.388,380.727 89.250 C 380.797 89.066,381.087 89.000,381.819 89.000 C 383.052 89.000,383.333 88.697,383.333 87.368 C 383.333 86.233,383.560 86.000,384.666 86.000 C 385.942 86.000,386.207 85.802,386.080 84.948 C 385.879 83.602,386.565 82.833,387.968 82.833 C 388.940 82.833,389.599 82.517,389.175 82.255 C 388.907 82.090,388.976 81.324,389.326 80.583 C 389.636 79.925,389.655 79.915,390.862 79.750 L 392.083 79.583 392.134 78.609 C 392.200 77.321,392.454 77.071,393.811 76.953 C 395.037 76.847,395.342 76.652,395.037 76.165 C 394.753 75.709,394.780 74.889,395.083 74.773 C 395.221 74.720,395.333 74.525,395.333 74.339 C 395.333 74.039,395.445 73.998,396.292 73.983 C 397.974 73.954,398.093 73.877,398.025 72.849 C 397.936 71.498,398.353 70.833,399.288 70.833 L 400.000 70.833 400.000 66.167 L 400.000 61.500 399.269 61.500 C 398.266 61.500,397.935 61.007,398.033 59.656 C 398.115 58.530,398.081 58.506,396.375 58.502 C 395.440 58.500,395.333 58.465,395.333 58.161 C 395.333 57.975,395.221 57.780,395.083 57.727 C 394.785 57.613,394.751 56.794,395.026 56.353 C 395.389 55.773,395.106 55.557,393.846 55.452 C 392.371 55.328,392.167 55.144,392.167 53.934 C 392.167 52.827,391.968 52.667,390.598 52.667 L 389.675 52.667 389.337 51.926 C 388.952 51.080,388.908 50.492,389.207 50.193 C 389.507 49.893,389.171 49.732,387.986 49.608 C 386.414 49.444,385.860 48.823,386.087 47.478 C 386.233 46.615,386.078 46.506,384.708 46.503 C 383.895 46.501,383.667 46.445,383.667 46.250 C 383.667 46.112,383.600 46.000,383.519 46.000 C 383.438 46.000,383.341 45.513,383.303 44.917 C 383.219 43.587,383.162 43.529,381.831 43.390 C 380.440 43.245,380.199 43.012,380.134 41.750 L 380.083 40.756 378.997 40.579 C 377.720 40.370,377.500 40.259,377.500 39.821 C 377.500 39.642,377.410 39.352,377.301 39.177 C 377.146 38.929,377.147 38.759,377.303 38.417 C 377.588 37.791,377.482 37.715,376.135 37.580 C 374.638 37.430,374.491 37.281,374.357 35.786 L 374.250 34.583 373.229 34.534 C 371.787 34.465,371.243 33.880,371.397 32.568 C 371.522 31.502,371.331 31.333,369.999 31.333 C 368.882 31.333,368.667 31.105,368.667 29.918 C 368.667 28.488,368.527 28.333,367.239 28.333 C 366.430 28.333,366.132 28.270,366.060 28.083 C 366.008 27.946,365.855 27.833,365.721 27.833 C 365.529 27.833,365.488 27.612,365.526 26.770 C 365.588 25.390,365.424 25.192,364.227 25.202 C 363.010 25.213,362.750 24.955,362.750 23.731 C 362.750 22.626,362.398 22.277,361.115 22.109 C 359.916 21.951,359.607 21.437,359.927 20.128 C 360.058 19.591,359.592 19.333,358.489 19.333 C 358.128 19.333,357.833 19.258,357.833 19.167 C 357.833 19.075,357.687 19.000,357.508 19.000 C 357.082 19.000,356.527 17.906,356.810 17.624 C 357.273 17.160,356.907 16.333,356.237 16.333 C 356.037 16.333,355.781 16.221,355.667 16.083 C 355.553 15.946,355.224 15.833,354.937 15.833 C 354.281 15.833,353.853 15.086,354.169 14.495 C 354.411 14.043,354.269 13.667,353.856 13.667 C 353.680 13.667,353.492 13.554,353.440 13.417 C 353.380 13.260,353.125 13.167,352.755 13.167 C 352.432 13.167,352.167 13.093,352.167 13.003 C 352.167 12.913,351.986 12.794,351.766 12.739 C 351.299 12.622,351.042 11.711,351.326 11.180 C 351.575 10.715,351.561 10.693,350.928 10.575 C 350.614 10.516,350.316 10.362,350.267 10.234 C 350.217 10.105,350.029 10.000,349.848 10.000 C 349.668 10.000,349.473 9.925,349.417 9.833 C 349.360 9.742,349.171 9.667,348.998 9.667 C 348.596 9.667,348.354 8.605,348.649 8.133 C 348.918 7.703,348.777 7.548,348.000 7.417 C 347.634 7.355,347.293 7.236,347.241 7.152 C 347.189 7.068,347.020 6.999,346.865 6.997 C 346.445 6.993,345.833 6.264,345.833 5.768 C 345.833 5.529,345.908 5.333,346.000 5.333 C 346.738 5.333,346.084 4.536,345.267 4.440 C 343.787 4.266,342.637 2.930,343.352 2.215 C 343.630 1.936,343.375 1.667,342.833 1.667 C 342.569 1.667,342.307 1.592,342.250 1.500 C 342.193 1.408,342.001 1.333,341.823 1.333 C 341.557 1.333,341.500 1.215,341.500 0.667 L 341.500 0.000 338.750 0.000 C 337.237 0.000,336.000 0.036,336.000 0.080 M168.338 72.199 C 167.228 72.392,123.366 72.490,118.908 72.310 C 115.371 72.167,114.953 72.180,113.658 72.477 C 112.883 72.654,111.998 72.760,111.690 72.711 C 110.951 72.595,110.613 73.061,110.996 73.667 C 111.137 73.888,125.973 73.926,242.345 74.000 L 373.536 74.083 372.691 74.750 C 372.227 75.117,371.844 75.510,371.840 75.625 C 371.836 75.740,371.721 75.833,371.583 75.833 C 371.446 75.833,371.333 75.914,371.333 76.012 C 371.333 76.440,370.829 76.667,369.879 76.667 C 368.689 76.667,368.520 76.812,368.625 77.748 C 368.765 78.989,368.046 79.801,366.750 79.866 L 365.750 79.917 365.661 80.833 C 365.529 82.208,365.313 82.438,364.050 82.556 C 362.661 82.686,362.648 82.698,362.770 83.738 C 362.838 84.317,362.809 84.662,362.687 84.737 C 362.584 84.801,362.500 84.995,362.500 85.169 C 362.500 85.514,362.075 85.633,360.583 85.708 L 359.750 85.750 359.806 86.768 C 359.850 87.579,359.807 87.808,359.597 87.888 C 359.452 87.944,359.333 88.133,359.333 88.309 C 359.333 88.588,359.183 88.638,358.176 88.694 C 356.771 88.774,356.789 88.757,356.696 90.044 C 356.592 91.484,356.313 91.821,355.222 91.828 C 353.933 91.836,353.871 91.886,353.963 92.841 C 354.011 93.343,353.976 93.667,353.873 93.667 C 353.779 93.667,353.657 93.850,353.601 94.073 C 353.509 94.440,353.386 94.491,352.340 94.594 C 351.089 94.717,350.404 95.138,350.804 95.537 C 351.526 96.259,350.504 97.659,349.250 97.667 C 348.081 97.674,347.952 97.801,347.867 99.028 C 347.776 100.337,347.488 100.667,346.434 100.667 C 345.161 100.667,344.299 101.317,345.000 101.750 C 345.210 101.880,345.220 102.500,345.011 102.500 C 344.926 102.500,344.806 102.658,344.744 102.851 C 344.520 103.559,344.128 103.833,343.338 103.836 C 341.995 103.840,341.866 103.925,341.959 104.750 C 342.114 106.130,341.511 106.790,339.917 106.983 C 339.001 107.093,339.069 106.963,339.014 108.708 C 339.005 108.998,338.908 109.167,338.750 109.167 C 338.612 109.167,338.500 109.270,338.500 109.397 C 338.500 109.562,338.146 109.661,337.250 109.745 C 336.026 109.859,335.568 110.213,336.167 110.583 C 337.083 111.150,335.765 112.595,334.183 112.760 C 332.834 112.900,332.738 112.952,333.095 113.346 C 333.861 114.192,332.810 115.705,331.320 115.903 C 330.144 116.059,330.078 116.123,330.575 116.621 C 331.139 117.184,330.936 118.000,330.232 118.000 C 330.145 118.000,329.838 118.216,329.550 118.479 C 329.126 118.866,328.809 118.982,327.905 119.078 C 326.040 119.278,326.145 118.913,326.113 125.333 C 326.086 130.837,326.137 132.379,326.352 132.515 C 326.917 132.873,333.333 132.677,333.333 132.302 C 333.333 132.008,328.870 127.436,327.673 126.504 C 326.268 125.410,326.218 125.145,327.265 124.333 C 328.015 123.751,329.196 122.542,330.370 121.151 C 330.711 120.747,331.648 119.732,332.453 118.895 C 338.196 112.922,339.749 111.279,340.140 110.763 C 340.384 110.441,341.520 109.294,342.666 108.214 C 344.915 106.092,348.186 102.757,349.331 101.417 C 349.723 100.958,350.765 99.871,351.647 99.000 C 353.219 97.448,358.732 91.704,360.181 90.108 C 360.585 89.663,361.141 89.185,361.416 89.046 C 362.141 88.679,365.186 85.420,365.615 84.552 C 366.023 83.727,366.321 83.374,369.317 80.176 C 370.472 78.944,371.904 77.411,372.500 76.768 C 373.850 75.311,374.388 74.807,375.318 74.123 C 376.214 73.464,376.482 73.082,376.227 72.827 C 376.042 72.642,363.114 72.502,340.083 72.433 C 332.273 72.410,329.266 72.346,328.343 72.183 C 327.361 72.010,326.851 72.005,325.888 72.160 C 323.808 72.496,317.196 72.589,305.250 72.449 C 291.251 72.286,292.911 72.289,284.250 72.405 C 268.928 72.610,248.985 72.490,247.678 72.185 C 246.988 72.024,245.391 72.001,240.928 72.087 C 237.714 72.149,233.583 72.184,231.750 72.165 C 229.917 72.146,225.023 72.133,220.875 72.137 C 216.727 72.140,211.815 72.141,209.958 72.139 C 208.102 72.137,204.408 72.148,201.750 72.164 C 192.482 72.217,184.875 72.190,178.875 72.082 C 175.109 72.015,172.410 72.037,171.709 72.141 C 171.090 72.233,170.246 72.255,169.833 72.189 C 169.421 72.123,168.748 72.128,168.338 72.199 " stroke="none" fill="#2f2f2f" fill-rule="evenodd"></path><path id="path1" d="M334.667 0.140 C 334.667 0.217,334.370 0.369,334.008 0.478 C 333.052 0.764,328.326 5.992,328.339 6.748 C 328.350 7.368,328.943 8.113,332.417 11.877 C 333.425 12.970,334.577 14.250,334.977 14.721 C 335.378 15.193,336.845 16.780,338.238 18.248 C 339.631 19.716,341.526 21.742,342.447 22.750 C 343.369 23.758,344.902 25.371,345.853 26.335 C 348.144 28.654,353.399 33.885,354.295 34.739 C 357.235 37.541,358.667 39.007,358.667 39.216 C 358.667 39.505,362.643 43.717,363.532 44.370 C 363.871 44.619,364.239 44.994,364.349 45.203 C 364.637 45.750,365.220 46.406,368.247 49.583 C 371.177 52.660,371.730 53.280,372.337 54.167 C 373.055 55.217,374.726 56.988,375.966 58.012 C 377.635 59.391,377.862 60.091,376.778 60.518 C 376.116 60.779,356.396 61.097,345.583 61.021 C 341.550 60.993,335.775 61.060,332.750 61.171 C 328.474 61.328,326.582 61.328,324.250 61.174 C 322.291 61.044,316.999 60.984,309.000 61.001 C 297.647 61.026,287.574 61.023,270.417 60.989 C 266.658 60.982,260.171 61.017,256.000 61.068 C 251.829 61.119,245.604 61.162,242.167 61.163 C 229.075 61.167,214.212 61.167,209.875 61.164 C 207.881 61.162,204.713 61.181,202.833 61.205 C 200.444 61.237,199.141 61.184,198.500 61.031 C 197.782 60.859,196.081 60.833,190.667 60.909 C 178.608 61.079,170.101 61.037,155.500 60.736 C 152.246 60.668,141.521 60.597,131.667 60.577 C 112.558 60.539,111.416 60.504,110.977 59.952 L 110.705 59.608 110.289 60.057 C 110.061 60.303,109.827 60.738,109.770 61.023 C 109.594 61.903,109.655 71.367,109.841 72.037 C 110.064 72.840,110.656 73.301,110.950 72.900 C 111.092 72.705,111.308 72.651,111.700 72.713 C 112.002 72.760,112.883 72.654,113.658 72.477 C 114.953 72.180,115.371 72.167,118.908 72.310 C 123.354 72.490,167.281 72.392,168.361 72.200 C 168.758 72.129,169.421 72.124,169.833 72.187 C 170.246 72.251,171.090 72.229,171.709 72.139 C 172.400 72.038,175.164 72.016,178.875 72.082 C 184.875 72.190,192.482 72.217,201.750 72.164 C 204.408 72.148,208.102 72.137,209.958 72.139 C 211.815 72.141,216.727 72.140,220.875 72.137 C 225.023 72.133,229.917 72.146,231.750 72.165 C 233.583 72.184,237.714 72.149,240.928 72.087 C 245.391 72.001,246.988 72.024,247.678 72.185 C 248.985 72.490,268.928 72.610,284.250 72.405 C 292.911 72.289,291.251 72.286,305.250 72.449 C 317.196 72.589,323.808 72.496,325.888 72.160 C 326.851 72.005,327.361 72.010,328.343 72.183 C 329.266 72.346,332.273 72.410,340.083 72.433 C 363.114 72.502,376.042 72.642,376.227 72.827 C 376.482 73.082,376.214 73.464,375.318 74.123 C 374.388 74.807,373.850 75.311,372.500 76.768 C 371.904 77.411,370.472 78.944,369.317 80.176 C 366.321 83.374,366.023 83.727,365.615 84.552 C 365.186 85.420,362.141 88.679,361.416 89.046 C 361.141 89.185,360.585 89.663,360.181 90.108 C 358.732 91.704,353.219 97.448,351.647 99.000 C 350.765 99.871,349.723 100.958,349.331 101.417 C 348.186 102.757,344.915 106.092,342.666 108.214 C 341.520 109.294,340.384 110.441,340.140 110.763 C 339.749 111.279,338.196 112.922,332.453 118.895 C 331.648 119.732,330.711 120.747,330.370 121.151 C 329.196 122.542,328.015 123.751,327.265 124.333 C 326.218 125.145,326.268 125.410,327.673 126.504 C 328.870 127.436,333.333 132.008,333.333 132.302 C 333.333 132.521,332.916 132.667,332.288 132.667 L 331.770 132.667 332.128 133.000 C 332.667 133.502,336.295 133.502,336.750 133.000 C 337.044 132.675,337.041 132.667,336.623 132.667 C 336.133 132.667,335.666 132.515,335.668 132.357 C 335.670 132.199,340.220 127.423,342.837 124.833 C 346.581 121.127,349.508 117.964,349.929 117.167 C 350.424 116.230,350.687 115.934,351.833 115.018 C 352.951 114.126,353.898 113.123,355.076 111.583 C 355.937 110.458,359.955 106.322,363.144 103.280 C 363.991 102.472,365.023 101.347,365.437 100.780 C 366.260 99.654,371.478 94.049,374.000 91.582 C 374.871 90.730,376.408 89.126,377.417 88.017 C 378.425 86.908,379.308 86.001,379.380 86.000 C 380.100 85.998,396.243 69.226,397.955 66.702 C 398.396 66.051,396.665 63.821,392.753 60.000 C 391.861 59.129,389.925 57.104,388.451 55.500 C 385.133 51.889,381.810 48.460,377.225 43.917 C 372.560 39.295,370.163 36.739,369.456 35.633 C 369.137 35.135,368.510 34.432,368.063 34.072 C 366.765 33.026,363.190 29.328,362.595 28.417 C 362.296 27.958,361.271 26.748,360.317 25.727 C 358.217 23.479,357.036 22.140,355.868 20.683 C 355.383 20.078,354.142 18.721,353.112 17.667 C 352.081 16.612,349.276 13.688,346.879 11.167 C 337.671 1.484,336.127 0.000,335.262 0.000 C 334.935 0.000,334.667 0.063,334.667 0.140 M49.167 19.083 C 49.167 19.264,48.981 19.333,48.500 19.333 C 48.019 19.333,47.833 19.403,47.833 19.583 C 47.833 19.764,47.648 19.833,47.167 19.833 C 46.800 19.833,46.500 19.908,46.500 20.000 C 46.500 20.092,46.310 20.167,46.078 20.167 C 45.846 20.167,45.613 20.279,45.560 20.417 C 45.508 20.554,45.285 20.667,45.066 20.667 C 44.822 20.667,44.667 20.764,44.667 20.917 C 44.667 21.054,44.554 21.167,44.417 21.167 C 44.279 21.167,44.167 21.242,44.167 21.333 C 44.167 21.425,44.014 21.500,43.828 21.500 C 43.642 21.500,43.446 21.613,43.394 21.750 C 43.341 21.887,43.193 22.000,43.066 22.000 C 42.938 22.000,42.833 22.080,42.833 22.179 C 42.833 22.409,42.409 22.833,42.179 22.833 C 42.080 22.833,42.000 22.946,42.000 23.083 C 42.000 23.221,41.887 23.333,41.750 23.333 C 41.612 23.333,41.500 23.446,41.500 23.583 C 41.500 23.721,41.425 23.833,41.333 23.833 C 41.242 23.833,41.167 24.021,41.167 24.250 C 41.167 24.509,41.072 24.667,40.917 24.667 C 40.779 24.667,40.667 24.779,40.667 24.917 C 40.667 25.054,40.554 25.167,40.417 25.167 C 40.261 25.167,40.167 25.324,40.167 25.583 C 40.167 25.813,40.092 26.000,40.000 26.000 C 39.908 26.000,39.833 26.188,39.833 26.417 C 39.833 26.676,39.739 26.833,39.583 26.833 C 39.417 26.833,39.333 27.000,39.333 27.333 C 39.333 27.667,39.250 27.833,39.083 27.833 C 38.903 27.833,38.833 28.019,38.833 28.500 C 38.833 28.867,38.758 29.167,38.667 29.167 C 38.573 29.167,38.500 29.639,38.500 30.250 C 38.500 31.102,38.447 31.333,38.250 31.333 C 38.034 31.333,38.000 31.935,38.000 35.750 C 38.000 39.565,38.034 40.167,38.250 40.167 C 38.442 40.167,38.500 40.380,38.500 41.083 C 38.500 41.587,38.575 42.000,38.667 42.000 C 38.758 42.000,38.833 42.265,38.833 42.589 C 38.833 42.958,38.926 43.213,39.083 43.273 C 39.221 43.326,39.333 43.548,39.333 43.768 C 39.333 44.011,39.431 44.167,39.583 44.167 C 39.730 44.167,39.836 44.322,39.839 44.542 C 39.845 44.972,40.197 45.500,40.477 45.500 C 40.581 45.500,40.667 45.612,40.667 45.750 C 40.667 45.887,40.779 46.000,40.917 46.000 C 41.072 46.000,41.167 46.157,41.167 46.417 C 41.167 46.646,41.242 46.833,41.333 46.833 C 41.425 46.833,41.500 46.946,41.500 47.083 C 41.500 47.221,41.612 47.333,41.750 47.333 C 41.887 47.333,42.000 47.446,42.000 47.583 C 42.000 47.721,42.080 47.833,42.179 47.833 C 42.409 47.833,42.833 48.257,42.833 48.488 C 42.833 48.586,42.938 48.667,43.066 48.667 C 43.193 48.667,43.341 48.779,43.394 48.917 C 43.446 49.054,43.642 49.167,43.828 49.167 C 44.014 49.167,44.167 49.242,44.167 49.333 C 44.167 49.425,44.392 49.500,44.667 49.500 C 44.942 49.500,45.167 49.582,45.167 49.682 C 45.167 49.997,45.898 50.489,46.375 50.494 C 46.627 50.498,46.833 50.575,46.833 50.667 C 46.833 50.758,47.133 50.833,47.500 50.833 C 47.981 50.833,48.167 50.903,48.167 51.083 C 48.167 51.275,48.380 51.333,49.083 51.333 C 49.787 51.333,50.000 51.391,50.000 51.583 C 50.000 51.799,50.556 51.833,54.000 51.833 C 57.444 51.833,58.000 51.799,58.000 51.583 C 58.000 51.391,58.213 51.333,58.917 51.333 C 59.620 51.333,59.833 51.275,59.833 51.083 C 59.833 50.903,60.019 50.833,60.500 50.833 C 60.867 50.833,61.167 50.758,61.167 50.667 C 61.167 50.575,61.382 50.500,61.646 50.500 C 61.910 50.500,62.219 50.387,62.333 50.250 C 62.447 50.112,62.719 50.000,62.937 50.000 C 63.178 50.000,63.333 49.902,63.333 49.750 C 63.333 49.612,63.414 49.500,63.512 49.500 C 63.743 49.500,64.167 49.076,64.167 48.845 C 64.167 48.747,64.337 48.667,64.546 48.667 C 64.994 48.667,65.500 48.135,65.500 47.665 C 65.500 47.481,65.612 47.333,65.750 47.333 C 65.887 47.333,66.000 47.221,66.000 47.083 C 66.000 46.946,66.112 46.833,66.250 46.833 C 66.406 46.833,66.500 46.676,66.500 46.417 C 66.500 46.188,66.575 46.000,66.667 46.000 C 66.758 46.000,66.833 45.587,66.833 45.083 C 66.833 44.579,66.758 44.167,66.667 44.167 C 66.575 44.167,66.498 43.960,66.494 43.708 C 66.488 43.134,65.974 42.500,65.515 42.500 C 65.316 42.500,65.167 42.392,65.167 42.250 C 65.167 42.045,64.880 42.000,63.583 42.000 C 62.287 42.000,62.000 42.045,62.000 42.250 C 62.000 42.387,61.920 42.500,61.821 42.500 C 61.591 42.500,61.167 42.924,61.167 43.155 C 61.167 43.253,61.054 43.333,60.917 43.333 C 60.779 43.333,60.667 43.446,60.667 43.583 C 60.667 43.721,60.554 43.833,60.417 43.833 C 60.279 43.833,60.167 43.908,60.167 44.000 C 60.167 44.092,60.014 44.167,59.828 44.167 C 59.642 44.167,59.446 44.279,59.394 44.417 C 59.341 44.554,59.193 44.667,59.066 44.667 C 58.938 44.667,58.833 44.779,58.833 44.917 C 58.833 45.097,58.648 45.167,58.167 45.167 C 57.800 45.167,57.500 45.242,57.500 45.333 C 57.500 45.432,56.889 45.500,56.000 45.500 C 54.778 45.500,54.500 45.546,54.500 45.750 C 54.500 45.917,54.333 46.000,54.000 46.000 C 53.667 46.000,53.500 45.917,53.500 45.750 C 53.500 45.549,53.241 45.500,52.167 45.500 C 51.389 45.500,50.833 45.431,50.833 45.333 C 50.833 45.242,50.533 45.167,50.167 45.167 C 49.685 45.167,49.500 45.097,49.500 44.917 C 49.500 44.764,49.345 44.667,49.101 44.667 C 48.882 44.667,48.659 44.554,48.606 44.417 C 48.554 44.279,48.358 44.167,48.172 44.167 C 47.986 44.167,47.833 44.092,47.833 44.000 C 47.833 43.908,47.721 43.833,47.583 43.833 C 47.446 43.833,47.333 43.721,47.333 43.583 C 47.333 43.446,47.264 43.333,47.179 43.333 C 46.979 43.333,46.000 42.354,46.000 42.154 C 46.000 42.069,45.887 42.000,45.750 42.000 C 45.612 42.000,45.500 41.887,45.500 41.750 C 45.500 41.612,45.425 41.500,45.333 41.500 C 45.242 41.500,45.167 41.313,45.167 41.083 C 45.167 40.824,45.072 40.667,44.917 40.667 C 44.736 40.667,44.667 40.481,44.667 40.000 C 44.667 39.519,44.597 39.333,44.417 39.333 C 44.202 39.333,44.167 38.806,44.167 35.583 C 44.167 32.361,44.202 31.833,44.417 31.833 C 44.596 31.833,44.667 31.650,44.667 31.184 C 44.667 30.762,44.754 30.502,44.917 30.440 C 45.054 30.387,45.167 30.172,45.167 29.961 C 45.167 29.748,45.351 29.441,45.583 29.266 C 45.822 29.087,46.000 28.785,46.000 28.560 C 46.000 28.344,46.080 28.167,46.179 28.167 C 46.409 28.167,46.833 27.743,46.833 27.512 C 46.833 27.414,46.946 27.333,47.083 27.333 C 47.221 27.333,47.333 27.221,47.333 27.083 C 47.333 26.946,47.414 26.833,47.512 26.833 C 47.743 26.833,48.167 26.409,48.167 26.179 C 48.167 26.080,48.392 26.000,48.667 26.000 C 49.000 26.000,49.167 25.917,49.167 25.750 C 49.167 25.576,49.341 25.500,49.740 25.500 C 50.056 25.500,50.360 25.425,50.417 25.333 C 50.473 25.242,50.890 25.167,51.343 25.167 C 51.964 25.167,52.167 25.105,52.167 24.917 C 52.167 24.737,52.350 24.667,52.816 24.667 C 53.238 24.667,53.498 24.754,53.560 24.917 C 53.632 25.104,53.931 25.167,54.745 25.167 C 55.359 25.167,55.833 25.239,55.833 25.333 C 55.833 25.425,56.021 25.500,56.250 25.500 C 56.509 25.500,56.667 25.594,56.667 25.750 C 56.667 25.902,56.822 26.000,57.063 26.000 C 57.281 26.000,57.553 26.113,57.667 26.250 C 57.781 26.387,57.983 26.500,58.116 26.500 C 58.398 26.500,58.833 26.897,58.833 27.155 C 58.833 27.253,58.946 27.333,59.083 27.333 C 59.239 27.333,59.333 27.491,59.333 27.750 C 59.333 28.009,59.428 28.167,59.583 28.167 C 59.764 28.167,59.833 28.352,59.833 28.833 C 59.833 29.200,59.908 29.500,60.000 29.500 C 60.092 29.500,60.167 29.800,60.167 30.167 C 60.167 30.648,60.236 30.833,60.417 30.833 C 60.554 30.833,60.667 30.946,60.667 31.083 C 60.667 31.236,60.822 31.333,61.066 31.333 C 61.285 31.333,61.508 31.446,61.560 31.583 C 61.634 31.775,61.949 31.833,62.911 31.833 C 63.916 31.833,64.167 31.783,64.167 31.583 C 64.167 31.434,64.320 31.333,64.546 31.333 C 65.073 31.333,65.500 30.773,65.500 30.081 C 65.500 29.676,65.576 29.500,65.750 29.500 C 65.965 29.500,66.000 28.953,66.000 25.578 C 66.000 22.246,65.962 21.642,65.750 21.560 C 65.612 21.508,65.500 21.285,65.500 21.066 C 65.500 20.846,65.425 20.667,65.333 20.667 C 65.242 20.667,65.167 20.554,65.167 20.417 C 65.167 20.279,65.054 20.167,64.917 20.167 C 64.779 20.167,64.667 20.092,64.667 20.000 C 64.667 19.908,64.487 19.833,64.268 19.833 C 64.048 19.833,63.826 19.721,63.773 19.583 C 63.641 19.238,62.500 19.238,62.500 19.583 C 62.500 19.764,62.315 19.833,61.833 19.833 C 61.467 19.833,61.167 19.908,61.167 20.000 C 61.167 20.092,61.054 20.167,60.917 20.167 C 60.779 20.167,60.667 20.279,60.667 20.417 C 60.667 20.554,60.554 20.667,60.417 20.667 C 60.279 20.667,60.167 20.554,60.167 20.417 C 60.167 20.261,60.009 20.167,59.750 20.167 C 59.521 20.167,59.333 20.092,59.333 20.000 C 59.333 19.908,59.154 19.833,58.934 19.833 C 58.715 19.833,58.492 19.721,58.440 19.583 C 58.372 19.407,58.097 19.333,57.505 19.333 C 56.871 19.333,56.667 19.272,56.667 19.083 C 56.667 18.869,56.139 18.833,52.917 18.833 C 49.694 18.833,49.167 18.869,49.167 19.083 M141.167 19.083 C 141.167 19.264,140.981 19.333,140.500 19.333 C 140.019 19.333,139.833 19.403,139.833 19.583 C 139.833 19.721,139.721 19.833,139.583 19.833 C 139.431 19.833,139.333 19.989,139.333 20.232 C 139.333 20.452,139.221 20.674,139.083 20.727 C 138.873 20.808,138.833 21.338,138.833 24.078 L 138.833 27.333 136.940 27.333 C 135.115 27.333,135.035 27.348,134.734 27.750 C 134.562 27.979,134.326 28.167,134.210 28.167 C 134.095 28.167,134.000 28.271,134.000 28.399 C 134.000 28.527,133.887 28.674,133.750 28.727 C 133.555 28.802,133.500 29.135,133.500 30.250 C 133.500 31.365,133.555 31.698,133.750 31.773 C 133.887 31.826,134.000 32.048,134.000 32.268 C 134.000 32.577,134.089 32.667,134.399 32.667 C 134.618 32.667,134.841 32.779,134.894 32.917 C 134.971 33.119,135.357 33.167,136.911 33.167 L 138.833 33.167 138.833 39.755 C 138.833 45.458,138.867 46.357,139.083 46.440 C 139.235 46.498,139.333 46.750,139.333 47.078 C 139.333 47.462,139.455 47.711,139.750 47.933 C 139.979 48.105,140.167 48.399,140.167 48.586 C 140.167 48.926,140.691 49.500,141.002 49.500 C 141.093 49.500,141.167 49.582,141.167 49.682 C 141.167 49.943,141.865 50.488,142.208 50.494 C 142.369 50.498,142.500 50.575,142.500 50.667 C 142.500 50.758,142.688 50.833,142.917 50.833 C 143.176 50.833,143.333 50.928,143.333 51.083 C 143.333 51.263,143.517 51.333,143.982 51.333 C 144.405 51.333,144.664 51.420,144.727 51.583 C 144.809 51.796,145.431 51.833,148.917 51.833 C 152.402 51.833,153.025 51.796,153.106 51.583 C 153.174 51.408,153.447 51.333,154.018 51.333 C 154.632 51.333,154.833 51.271,154.833 51.083 C 154.833 50.891,155.046 50.833,155.750 50.833 C 156.254 50.833,156.667 50.758,156.667 50.667 C 156.667 50.575,156.932 50.500,157.255 50.500 C 157.625 50.500,157.880 50.407,157.940 50.250 C 157.992 50.112,158.215 50.000,158.434 50.000 C 158.678 50.000,158.833 49.903,158.833 49.750 C 158.833 49.593,158.992 49.500,159.262 49.500 C 159.701 49.500,160.167 49.163,160.167 48.845 C 160.167 48.747,160.279 48.667,160.417 48.667 C 160.554 48.667,160.667 48.554,160.667 48.417 C 160.667 48.279,160.779 48.167,160.917 48.167 C 161.123 48.167,161.167 47.861,161.167 46.417 C 161.167 44.972,161.123 44.667,160.917 44.667 C 160.779 44.667,160.667 44.554,160.667 44.417 C 160.667 44.279,160.554 44.167,160.417 44.167 C 160.279 44.167,160.167 44.092,160.167 44.000 C 160.167 43.908,159.979 43.833,159.750 43.833 C 159.491 43.833,159.333 43.739,159.333 43.583 C 159.333 43.391,159.120 43.333,158.417 43.333 C 157.713 43.333,157.500 43.391,157.500 43.583 C 157.500 43.764,157.315 43.833,156.833 43.833 C 156.467 43.833,156.167 43.908,156.167 44.000 C 156.167 44.092,155.979 44.167,155.750 44.167 C 155.491 44.167,155.333 44.261,155.333 44.417 C 155.333 44.572,155.176 44.667,154.917 44.667 C 154.657 44.667,154.500 44.761,154.500 44.917 C 154.500 45.109,154.287 45.167,153.583 45.167 C 153.079 45.167,152.667 45.242,152.667 45.333 C 152.667 45.427,152.194 45.500,151.583 45.500 C 150.731 45.500,150.500 45.553,150.500 45.750 C 150.500 45.951,150.243 46.000,149.184 46.000 C 148.169 46.000,147.847 45.943,147.773 45.750 C 147.705 45.574,147.430 45.500,146.839 45.500 C 146.377 45.500,146.000 45.425,146.000 45.333 C 146.000 45.242,145.887 45.167,145.750 45.167 C 145.612 45.167,145.500 45.054,145.500 44.917 C 145.500 44.779,145.425 44.667,145.333 44.667 C 145.225 44.667,145.167 42.639,145.167 38.917 L 145.167 33.167 150.917 33.167 C 155.917 33.167,156.667 33.134,156.667 32.917 C 156.667 32.761,156.824 32.667,157.083 32.667 C 157.417 32.667,157.500 32.583,157.500 32.250 C 157.500 31.991,157.594 31.833,157.750 31.833 C 157.955 31.833,158.000 31.546,158.000 30.250 C 158.000 28.954,157.955 28.667,157.750 28.667 C 157.612 28.667,157.500 28.586,157.500 28.488 C 157.500 28.257,157.076 27.833,156.845 27.833 C 156.747 27.833,156.667 27.721,156.667 27.583 C 156.667 27.366,155.917 27.333,150.917 27.333 L 145.167 27.333 145.167 24.495 C 145.167 22.125,145.125 21.640,144.917 21.560 C 144.754 21.498,144.667 21.238,144.667 20.816 C 144.667 20.459,144.586 20.167,144.488 20.167 C 144.257 20.167,143.833 19.743,143.833 19.512 C 143.833 19.414,143.608 19.333,143.333 19.333 C 143.000 19.333,142.833 19.250,142.833 19.083 C 142.833 18.894,142.630 18.833,142.000 18.833 C 141.370 18.833,141.167 18.894,141.167 19.083 M234.500 19.083 C 234.500 19.264,234.315 19.333,233.833 19.333 C 233.352 19.333,233.167 19.403,233.167 19.583 C 233.167 19.721,233.054 19.833,232.917 19.833 C 232.764 19.833,232.667 19.989,232.667 20.232 C 232.667 20.452,232.554 20.674,232.417 20.727 C 232.206 20.808,232.167 21.338,232.167 24.078 L 232.167 27.333 230.273 27.333 C 228.448 27.333,228.369 27.348,228.067 27.750 C 227.895 27.979,227.660 28.167,227.544 28.167 C 227.428 28.167,227.333 28.271,227.333 28.399 C 227.333 28.527,227.221 28.674,227.083 28.727 C 226.888 28.802,226.833 29.135,226.833 30.250 C 226.833 31.365,226.888 31.698,227.083 31.773 C 227.221 31.826,227.333 32.048,227.333 32.268 C 227.333 32.577,227.423 32.667,227.732 32.667 C 227.952 32.667,228.174 32.779,228.227 32.917 C 228.305 33.119,228.690 33.167,230.245 33.167 L 232.167 33.167 232.167 39.755 C 232.167 45.458,232.200 46.357,232.417 46.440 C 232.568 46.498,232.667 46.750,232.667 47.078 C 232.667 47.462,232.788 47.711,233.083 47.933 C 233.313 48.105,233.502 48.359,233.506 48.498 C 233.512 48.810,234.072 49.500,234.318 49.500 C 234.418 49.500,234.500 49.612,234.500 49.750 C 234.500 49.906,234.657 50.000,234.917 50.000 C 235.176 50.000,235.333 50.094,235.333 50.250 C 235.333 50.387,235.446 50.500,235.583 50.500 C 235.721 50.500,235.833 50.575,235.833 50.667 C 235.833 50.758,236.021 50.833,236.250 50.833 C 236.509 50.833,236.667 50.928,236.667 51.083 C 236.667 51.263,236.850 51.333,237.316 51.333 C 237.738 51.333,237.998 51.420,238.060 51.583 C 238.142 51.796,238.765 51.833,242.250 51.833 C 245.735 51.833,246.358 51.796,246.440 51.583 C 246.507 51.408,246.780 51.333,247.351 51.333 C 247.965 51.333,248.167 51.271,248.167 51.083 C 248.167 50.891,248.380 50.833,249.083 50.833 C 249.588 50.833,250.000 50.758,250.000 50.667 C 250.000 50.575,250.265 50.500,250.589 50.500 C 250.958 50.500,251.213 50.407,251.273 50.250 C 251.326 50.112,251.548 50.000,251.768 50.000 C 252.011 50.000,252.167 49.903,252.167 49.750 C 252.167 49.593,252.325 49.500,252.595 49.500 C 253.035 49.500,253.500 49.163,253.500 48.845 C 253.500 48.747,253.612 48.667,253.750 48.667 C 253.887 48.667,254.000 48.554,254.000 48.417 C 254.000 48.279,254.112 48.167,254.250 48.167 C 254.456 48.167,254.500 47.861,254.500 46.417 C 254.500 44.972,254.456 44.667,254.250 44.667 C 254.112 44.667,254.000 44.554,254.000 44.417 C 254.000 44.279,253.887 44.167,253.750 44.167 C 253.612 44.167,253.500 44.092,253.500 44.000 C 253.500 43.908,253.313 43.833,253.083 43.833 C 252.824 43.833,252.667 43.739,252.667 43.583 C 252.667 43.391,252.454 43.333,251.750 43.333 C 251.046 43.333,250.833 43.391,250.833 43.583 C 250.833 43.764,250.648 43.833,250.167 43.833 C 249.800 43.833,249.500 43.908,249.500 44.000 C 249.500 44.092,249.348 44.167,249.161 44.167 C 248.975 44.167,248.780 44.279,248.727 44.417 C 248.674 44.554,248.452 44.667,248.232 44.667 C 247.989 44.667,247.833 44.764,247.833 44.917 C 247.833 45.109,247.620 45.167,246.917 45.167 C 246.412 45.167,246.000 45.242,246.000 45.333 C 246.000 45.427,245.528 45.500,244.917 45.500 C 244.065 45.500,243.833 45.553,243.833 45.750 C 243.833 45.951,243.576 46.000,242.518 46.000 C 241.502 46.000,241.180 45.943,241.106 45.750 C 241.039 45.574,240.764 45.500,240.172 45.500 C 239.711 45.500,239.333 45.425,239.333 45.333 C 239.333 45.242,239.221 45.167,239.083 45.167 C 238.946 45.167,238.833 45.054,238.833 44.917 C 238.833 44.779,238.758 44.667,238.667 44.667 C 238.559 44.667,238.500 42.639,238.500 38.917 L 238.500 33.167 244.250 33.167 C 249.250 33.167,250.000 33.134,250.000 32.917 C 250.000 32.761,250.157 32.667,250.417 32.667 C 250.750 32.667,250.833 32.583,250.833 32.250 C 250.833 31.991,250.928 31.833,251.083 31.833 C 251.288 31.833,251.333 31.546,251.333 30.250 C 251.333 28.954,251.288 28.667,251.083 28.667 C 250.946 28.667,250.833 28.586,250.833 28.488 C 250.833 28.257,250.409 27.833,250.179 27.833 C 250.080 27.833,250.000 27.721,250.000 27.583 C 250.000 27.366,249.250 27.333,244.250 27.333 L 238.500 27.333 238.500 24.495 C 238.500 22.125,238.459 21.640,238.250 21.560 C 238.087 21.498,238.000 21.238,238.000 20.816 C 238.000 20.459,237.920 20.167,237.821 20.167 C 237.591 20.167,237.167 19.743,237.167 19.512 C 237.167 19.414,236.942 19.333,236.667 19.333 C 236.333 19.333,236.167 19.250,236.167 19.083 C 236.167 18.894,235.963 18.833,235.333 18.833 C 234.704 18.833,234.500 18.894,234.500 19.083 M81.500 26.667 C 81.500 26.761,81.028 26.833,80.417 26.833 C 79.565 26.833,79.333 26.887,79.333 27.083 C 79.333 27.264,79.148 27.333,78.667 27.333 C 78.185 27.333,78.000 27.403,78.000 27.583 C 78.000 27.739,77.843 27.833,77.583 27.833 C 77.354 27.833,77.167 27.908,77.167 28.000 C 77.167 28.092,76.977 28.167,76.745 28.167 C 76.513 28.167,76.280 28.279,76.227 28.417 C 76.174 28.554,75.952 28.667,75.732 28.667 C 75.489 28.667,75.333 28.764,75.333 28.917 C 75.333 29.054,75.221 29.167,75.083 29.167 C 74.946 29.167,74.833 29.242,74.833 29.333 C 74.833 29.425,74.681 29.500,74.495 29.500 C 74.309 29.500,74.113 29.613,74.060 29.750 C 74.008 29.887,73.860 30.000,73.732 30.000 C 73.604 30.000,73.500 30.081,73.500 30.180 C 73.500 30.279,73.200 30.639,72.833 30.981 C 72.467 31.323,72.167 31.730,72.167 31.885 C 72.167 32.040,72.092 32.167,72.000 32.167 C 71.908 32.167,71.833 32.279,71.833 32.417 C 71.833 32.554,71.721 32.667,71.583 32.667 C 71.431 32.667,71.333 32.822,71.333 33.066 C 71.333 33.285,71.221 33.508,71.083 33.560 C 70.946 33.613,70.833 33.846,70.833 34.078 C 70.833 34.310,70.758 34.500,70.667 34.500 C 70.575 34.500,70.500 34.800,70.500 35.167 C 70.500 35.648,70.431 35.833,70.250 35.833 C 70.054 35.833,70.000 36.063,70.000 36.899 C 70.000 37.692,69.936 37.989,69.750 38.060 C 69.557 38.134,69.500 38.456,69.500 39.474 C 69.500 40.443,69.566 40.848,69.750 41.000 C 69.924 41.145,70.000 41.529,70.000 42.270 C 70.000 43.104,70.054 43.333,70.250 43.333 C 70.406 43.333,70.500 43.491,70.500 43.750 C 70.500 43.979,70.575 44.167,70.667 44.167 C 70.758 44.167,70.833 44.357,70.833 44.589 C 70.833 44.821,70.946 45.054,71.083 45.106 C 71.221 45.159,71.333 45.382,71.333 45.601 C 71.333 45.845,71.431 46.000,71.583 46.000 C 71.739 46.000,71.833 46.157,71.833 46.417 C 71.833 46.646,71.908 46.833,72.000 46.833 C 72.092 46.833,72.167 46.946,72.167 47.083 C 72.167 47.221,72.279 47.333,72.417 47.333 C 72.554 47.333,72.667 47.446,72.667 47.583 C 72.667 47.721,72.747 47.833,72.845 47.833 C 73.076 47.833,73.500 48.257,73.500 48.488 C 73.500 48.586,73.604 48.667,73.732 48.667 C 73.860 48.667,74.008 48.779,74.060 48.917 C 74.113 49.054,74.309 49.167,74.495 49.167 C 74.681 49.167,74.833 49.242,74.833 49.333 C 74.833 49.425,74.946 49.500,75.083 49.500 C 75.221 49.500,75.333 49.612,75.333 49.750 C 75.333 49.903,75.489 50.000,75.732 50.000 C 75.952 50.000,76.174 50.112,76.227 50.250 C 76.280 50.387,76.513 50.500,76.745 50.500 C 76.977 50.500,77.167 50.575,77.167 50.667 C 77.167 50.758,77.467 50.833,77.833 50.833 C 78.315 50.833,78.500 50.903,78.500 51.083 C 78.500 51.264,78.685 51.333,79.167 51.333 C 79.648 51.333,79.833 51.403,79.833 51.583 C 79.833 51.798,80.361 51.833,83.583 51.833 C 86.806 51.833,87.333 51.798,87.333 51.583 C 87.333 51.394,87.538 51.333,88.172 51.333 C 88.764 51.333,89.039 51.260,89.106 51.083 C 89.159 50.946,89.382 50.833,89.601 50.833 C 89.821 50.833,90.000 50.758,90.000 50.667 C 90.000 50.575,90.188 50.500,90.417 50.500 C 90.676 50.500,90.833 50.406,90.833 50.250 C 90.833 50.083,91.000 50.000,91.333 50.000 C 91.667 50.000,91.833 49.917,91.833 49.750 C 91.833 49.608,91.983 49.500,92.179 49.500 C 92.539 49.500,93.500 48.660,93.500 48.346 C 93.500 48.247,93.612 48.167,93.750 48.167 C 93.888 48.167,94.000 48.092,94.000 48.000 C 94.000 47.908,94.112 47.833,94.250 47.833 C 94.388 47.833,94.500 47.721,94.500 47.583 C 94.500 47.446,94.575 47.333,94.667 47.333 C 94.758 47.333,94.833 47.221,94.833 47.083 C 94.833 46.946,94.915 46.833,95.015 46.833 C 95.276 46.833,95.821 46.135,95.828 45.792 C 95.831 45.631,95.908 45.500,96.000 45.500 C 96.092 45.500,96.167 45.313,96.167 45.083 C 96.167 44.824,96.261 44.667,96.417 44.667 C 96.569 44.667,96.667 44.512,96.667 44.270 C 96.667 44.052,96.779 43.781,96.917 43.667 C 97.069 43.540,97.167 43.175,97.167 42.730 C 97.167 42.328,97.242 42.000,97.333 42.000 C 97.437 42.000,97.500 41.083,97.500 39.583 C 97.500 38.083,97.437 37.167,97.333 37.167 C 97.242 37.167,97.167 36.789,97.167 36.328 C 97.167 35.736,97.093 35.461,96.917 35.394 C 96.779 35.341,96.667 35.118,96.667 34.899 C 96.667 34.655,96.569 34.500,96.417 34.500 C 96.250 34.500,96.167 34.333,96.167 34.000 C 96.167 33.725,96.092 33.500,96.000 33.500 C 95.908 33.500,95.833 33.313,95.833 33.083 C 95.833 32.824,95.739 32.667,95.583 32.667 C 95.428 32.667,95.333 32.509,95.333 32.250 C 95.333 31.991,95.239 31.833,95.083 31.833 C 94.946 31.833,94.833 31.753,94.833 31.654 C 94.833 31.421,93.913 30.500,93.679 30.500 C 93.581 30.500,93.500 30.419,93.500 30.321 C 93.500 30.006,92.539 29.167,92.179 29.167 C 91.983 29.167,91.833 29.059,91.833 28.917 C 91.833 28.779,91.729 28.667,91.601 28.667 C 91.473 28.667,91.326 28.554,91.273 28.417 C 91.220 28.279,91.029 28.167,90.848 28.167 C 90.668 28.167,90.473 28.092,90.417 28.000 C 90.360 27.908,90.056 27.833,89.740 27.833 C 89.341 27.833,89.167 27.757,89.167 27.583 C 89.167 27.404,88.983 27.333,88.518 27.333 C 88.095 27.333,87.836 27.246,87.773 27.083 C 87.705 26.907,87.430 26.833,86.839 26.833 C 86.377 26.833,86.000 26.758,86.000 26.667 C 86.000 26.564,85.139 26.500,83.750 26.500 C 82.361 26.500,81.500 26.564,81.500 26.667 M114.000 26.667 C 114.000 26.758,113.623 26.833,113.161 26.833 C 112.570 26.833,112.295 26.907,112.227 27.083 C 112.174 27.221,111.952 27.333,111.732 27.333 C 111.489 27.333,111.333 27.431,111.333 27.583 C 111.333 27.739,111.176 27.833,110.917 27.833 C 110.688 27.833,110.500 27.908,110.500 28.000 C 110.500 28.092,110.388 28.167,110.250 28.167 C 110.094 28.167,110.000 28.009,110.000 27.750 L 110.000 27.333 106.000 27.333 C 102.556 27.333,102.000 27.368,102.000 27.583 C 102.000 27.739,101.843 27.833,101.583 27.833 C 101.250 27.833,101.167 27.917,101.167 28.250 C 101.167 28.509,101.072 28.667,100.917 28.667 C 100.712 28.667,100.667 28.954,100.667 30.250 C 100.667 31.546,100.712 31.833,100.917 31.833 C 101.072 31.833,101.167 31.991,101.167 32.250 C 101.167 32.583,101.250 32.667,101.583 32.667 C 101.843 32.667,102.000 32.761,102.000 32.917 C 102.000 33.109,102.213 33.167,102.917 33.167 L 103.833 33.167 103.833 39.167 L 103.833 45.167 102.500 45.167 C 101.722 45.167,101.167 45.236,101.167 45.333 C 101.167 45.425,101.054 45.500,100.917 45.500 C 100.779 45.500,100.667 45.604,100.667 45.732 C 100.667 45.860,100.554 46.008,100.417 46.060 C 100.260 46.120,100.167 46.375,100.167 46.745 C 100.167 47.068,100.092 47.333,100.000 47.333 C 99.908 47.333,99.833 47.704,99.833 48.157 C 99.833 48.610,99.908 49.027,100.000 49.083 C 100.092 49.140,100.167 49.369,100.167 49.593 C 100.167 49.844,100.263 50.000,100.417 50.000 C 100.554 50.000,100.667 50.112,100.667 50.250 C 100.667 50.387,100.779 50.500,100.917 50.500 C 101.054 50.500,101.167 50.575,101.167 50.667 C 101.167 50.775,103.171 50.833,106.846 50.833 L 112.526 50.833 113.013 50.346 C 113.520 49.839,113.798 46.500,113.333 46.500 C 113.242 46.500,113.167 46.365,113.167 46.200 C 113.167 45.816,112.851 45.500,112.467 45.500 C 112.302 45.500,112.167 45.425,112.167 45.333 C 112.167 45.239,111.694 45.167,111.083 45.167 L 110.000 45.167 110.000 40.500 C 110.000 36.463,110.034 35.833,110.250 35.833 C 110.388 35.833,110.500 35.721,110.500 35.583 C 110.500 35.446,110.575 35.333,110.667 35.333 C 110.758 35.333,110.833 35.221,110.833 35.083 C 110.833 34.946,110.946 34.833,111.083 34.833 C 111.221 34.833,111.333 34.758,111.333 34.667 C 111.333 34.575,111.446 34.500,111.583 34.500 C 111.721 34.500,111.833 34.387,111.833 34.250 C 111.833 34.094,111.991 34.000,112.250 34.000 C 112.509 34.000,112.667 33.906,112.667 33.750 C 112.667 33.612,112.779 33.500,112.917 33.500 C 113.054 33.500,113.167 33.425,113.167 33.333 C 113.167 33.242,113.432 33.167,113.755 33.167 C 114.125 33.167,114.380 33.074,114.440 32.917 C 114.515 32.721,114.852 32.667,115.997 32.667 C 117.093 32.667,117.511 32.729,117.667 32.917 C 117.781 33.054,118.090 33.167,118.354 33.167 C 118.618 33.167,118.833 33.242,118.833 33.333 C 118.833 33.425,118.946 33.500,119.083 33.500 C 119.221 33.500,119.333 33.612,119.333 33.750 C 119.333 33.887,119.446 34.000,119.583 34.000 C 119.764 34.000,119.833 34.185,119.833 34.667 C 119.833 35.033,119.908 35.333,120.000 35.333 C 120.107 35.333,120.167 37.083,120.167 40.250 L 120.167 45.167 119.333 45.167 C 118.875 45.167,118.500 45.242,118.500 45.333 C 118.500 45.425,118.329 45.500,118.120 45.500 C 117.680 45.500,117.167 46.030,117.167 46.484 C 117.167 46.657,117.054 46.841,116.917 46.894 C 116.732 46.964,116.667 47.256,116.667 48.000 C 116.667 48.744,116.732 49.036,116.917 49.106 C 117.054 49.159,117.167 49.350,117.167 49.531 C 117.167 49.711,117.386 50.078,117.654 50.346 L 118.141 50.833 123.154 50.833 C 126.385 50.833,128.167 50.774,128.167 50.667 C 128.167 50.575,128.279 50.500,128.417 50.500 C 128.554 50.500,128.667 50.387,128.667 50.250 C 128.667 50.112,128.779 50.000,128.917 50.000 C 129.097 50.000,129.167 49.815,129.167 49.333 C 129.167 48.967,129.242 48.667,129.333 48.667 C 129.425 48.667,129.500 48.367,129.500 48.000 C 129.500 47.633,129.425 47.333,129.333 47.333 C 129.242 47.333,129.167 47.068,129.167 46.745 C 129.167 46.375,129.074 46.120,128.917 46.060 C 128.779 46.008,128.667 45.860,128.667 45.732 C 128.667 45.596,128.495 45.500,128.250 45.500 C 128.021 45.500,127.833 45.425,127.833 45.333 C 127.833 45.242,127.421 45.167,126.917 45.167 L 126.000 45.167 126.000 38.917 C 126.000 33.472,125.968 32.667,125.750 32.667 C 125.569 32.667,125.500 32.481,125.500 32.000 C 125.500 31.633,125.425 31.333,125.333 31.333 C 125.242 31.333,125.167 31.181,125.167 30.995 C 125.167 30.809,125.054 30.613,124.917 30.560 C 124.779 30.508,124.667 30.360,124.667 30.232 C 124.667 30.104,124.554 30.000,124.417 30.000 C 124.279 30.000,124.167 29.920,124.167 29.821 C 124.167 29.591,123.743 29.167,123.512 29.167 C 123.414 29.167,123.333 29.054,123.333 28.917 C 123.333 28.779,123.221 28.667,123.083 28.667 C 122.946 28.667,122.833 28.581,122.833 28.477 C 122.833 28.197,122.305 27.845,121.875 27.839 C 121.655 27.836,121.500 27.730,121.500 27.583 C 121.500 27.403,121.315 27.333,120.833 27.333 C 120.352 27.333,120.167 27.264,120.167 27.083 C 120.167 26.894,119.963 26.833,119.333 26.833 C 118.875 26.833,118.500 26.758,118.500 26.667 C 118.500 26.564,117.639 26.500,116.250 26.500 C 114.861 26.500,114.000 26.564,114.000 26.667 M174.000 26.667 C 174.000 26.764,173.444 26.833,172.667 26.833 C 171.593 26.833,171.333 26.882,171.333 27.083 C 171.333 27.280,171.102 27.333,170.250 27.333 C 169.398 27.333,169.167 27.387,169.167 27.583 C 169.167 27.764,168.981 27.833,168.500 27.833 C 168.133 27.833,167.833 27.908,167.833 28.000 C 167.833 28.092,167.663 28.167,167.454 28.167 C 167.082 28.167,166.500 28.676,166.500 29.002 C 166.500 29.093,166.387 29.167,166.250 29.167 C 166.097 29.167,166.000 29.322,166.000 29.566 C 166.000 29.785,165.887 30.008,165.750 30.060 C 165.578 30.126,165.500 30.394,165.500 30.917 C 165.500 31.439,165.578 31.707,165.750 31.773 C 165.887 31.826,166.000 32.048,166.000 32.268 C 166.000 32.511,166.097 32.667,166.250 32.667 C 166.387 32.667,166.500 32.747,166.500 32.845 C 166.500 33.076,166.924 33.500,167.155 33.500 C 167.253 33.500,167.333 33.612,167.333 33.750 C 167.333 33.951,167.593 34.000,168.667 34.000 C 169.741 34.000,170.000 33.951,170.000 33.750 C 170.000 33.553,170.231 33.500,171.083 33.500 C 171.694 33.500,172.167 33.427,172.167 33.333 C 172.167 33.239,172.641 33.167,173.255 33.167 C 174.069 33.167,174.368 33.104,174.440 32.917 C 174.518 32.713,174.926 32.667,176.664 32.667 C 178.353 32.667,178.835 32.718,179.000 32.917 C 179.114 33.054,179.423 33.167,179.687 33.167 C 179.951 33.167,180.167 33.242,180.167 33.333 C 180.167 33.425,180.279 33.500,180.417 33.500 C 180.554 33.500,180.667 33.612,180.667 33.750 C 180.667 33.887,180.779 34.000,180.917 34.000 C 181.097 34.000,181.167 34.185,181.167 34.667 L 181.167 35.333 179.184 35.333 C 177.576 35.333,177.184 35.286,177.106 35.083 C 177.039 34.907,176.764 34.833,176.172 34.833 C 175.538 34.833,175.333 34.894,175.333 35.083 C 175.333 35.292,175.000 35.333,173.333 35.333 C 171.667 35.333,171.333 35.375,171.333 35.583 C 171.333 35.764,171.148 35.833,170.667 35.833 C 170.300 35.833,170.000 35.908,170.000 36.000 C 170.000 36.092,169.735 36.167,169.411 36.167 C 169.042 36.167,168.787 36.260,168.727 36.417 C 168.674 36.554,168.452 36.667,168.232 36.667 C 167.989 36.667,167.833 36.764,167.833 36.917 C 167.833 37.054,167.721 37.167,167.583 37.167 C 167.446 37.167,167.333 37.242,167.333 37.333 C 167.333 37.425,167.181 37.500,166.995 37.500 C 166.809 37.500,166.613 37.612,166.560 37.750 C 166.508 37.887,166.360 38.000,166.232 38.000 C 166.104 38.000,166.000 38.112,166.000 38.250 C 166.000 38.387,165.920 38.500,165.821 38.500 C 165.591 38.500,165.167 38.924,165.167 39.155 C 165.167 39.253,165.054 39.333,164.917 39.333 C 164.776 39.333,164.667 39.482,164.667 39.675 C 164.667 39.862,164.479 40.190,164.250 40.402 C 163.953 40.678,163.833 40.962,163.833 41.394 C 163.833 41.822,163.760 42.000,163.583 42.000 C 163.373 42.000,163.333 42.380,163.333 44.417 C 163.333 46.454,163.373 46.833,163.583 46.833 C 163.741 46.833,163.833 46.992,163.833 47.262 C 163.833 47.701,164.170 48.167,164.488 48.167 C 164.586 48.167,164.667 48.337,164.667 48.546 C 164.667 48.994,165.199 49.500,165.669 49.500 C 165.852 49.500,166.000 49.612,166.000 49.750 C 166.000 49.887,166.112 50.000,166.250 50.000 C 166.387 50.000,166.500 50.085,166.500 50.190 C 166.500 50.470,167.028 50.822,167.458 50.828 C 167.678 50.831,167.833 50.937,167.833 51.083 C 167.833 51.263,168.017 51.333,168.482 51.333 C 168.905 51.333,169.164 51.420,169.227 51.583 C 169.308 51.796,169.904 51.833,173.167 51.833 C 176.430 51.833,177.025 51.796,177.106 51.583 C 177.174 51.408,177.447 51.333,178.018 51.333 C 178.632 51.333,178.833 51.271,178.833 51.083 C 178.833 50.903,179.019 50.833,179.500 50.833 C 179.867 50.833,180.167 50.758,180.167 50.667 C 180.167 50.575,180.392 50.500,180.667 50.500 C 180.942 50.500,181.167 50.575,181.167 50.667 C 181.167 50.774,182.810 50.833,185.762 50.833 C 190.459 50.833,190.833 50.785,190.833 50.179 C 190.833 50.080,190.946 50.000,191.083 50.000 C 191.264 50.000,191.333 49.815,191.333 49.333 C 191.333 48.852,191.403 48.667,191.583 48.667 C 191.764 48.667,191.833 48.481,191.833 48.000 C 191.833 47.519,191.764 47.333,191.583 47.333 C 191.403 47.333,191.333 47.148,191.333 46.667 C 191.333 46.185,191.264 46.000,191.083 46.000 C 190.946 46.000,190.833 45.887,190.833 45.750 C 190.833 45.594,190.676 45.500,190.417 45.500 C 190.188 45.500,190.000 45.425,190.000 45.333 C 190.000 45.236,189.444 45.167,188.667 45.167 L 187.333 45.167 187.333 39.167 C 187.333 33.944,187.301 33.167,187.083 33.167 C 186.891 33.167,186.833 32.954,186.833 32.250 C 186.833 31.746,186.758 31.333,186.667 31.333 C 186.575 31.333,186.500 31.146,186.500 30.917 C 186.500 30.657,186.406 30.500,186.250 30.500 C 186.112 30.500,186.000 30.387,186.000 30.250 C 186.000 30.113,185.887 30.000,185.750 30.000 C 185.612 30.000,185.500 29.920,185.500 29.821 C 185.500 29.591,185.076 29.167,184.845 29.167 C 184.747 29.167,184.667 29.054,184.667 28.917 C 184.667 28.779,184.554 28.667,184.417 28.667 C 184.279 28.667,184.167 28.581,184.167 28.477 C 184.167 28.197,183.638 27.845,183.208 27.839 C 182.988 27.836,182.833 27.730,182.833 27.583 C 182.833 27.403,182.648 27.333,182.167 27.333 C 181.685 27.333,181.500 27.264,181.500 27.083 C 181.500 26.887,181.269 26.833,180.417 26.833 C 179.806 26.833,179.333 26.761,179.333 26.667 C 179.333 26.563,178.333 26.500,176.667 26.500 C 175.000 26.500,174.000 26.563,174.000 26.667 M206.000 26.667 C 206.000 26.759,205.554 26.833,204.995 26.833 C 204.255 26.833,203.964 26.899,203.894 27.083 C 203.831 27.246,203.572 27.333,203.149 27.333 C 202.683 27.333,202.500 27.404,202.500 27.583 C 202.500 27.750,202.333 27.833,202.000 27.833 C 201.725 27.833,201.500 27.908,201.500 28.000 C 201.500 28.092,201.348 28.167,201.161 28.167 C 200.975 28.167,200.780 28.279,200.727 28.417 C 200.674 28.554,200.527 28.667,200.399 28.667 C 200.271 28.667,200.167 28.747,200.167 28.845 C 200.167 29.092,199.737 29.499,199.470 29.506 C 199.183 29.513,198.500 30.085,198.500 30.318 C 198.500 30.418,198.418 30.500,198.318 30.500 C 198.072 30.500,197.512 31.190,197.506 31.502 C 197.502 31.641,197.313 31.895,197.083 32.067 C 196.845 32.246,196.667 32.548,196.667 32.773 C 196.667 33.012,196.568 33.167,196.417 33.167 C 196.261 33.167,196.167 33.324,196.167 33.583 C 196.167 33.813,196.092 34.000,196.000 34.000 C 195.908 34.000,195.833 34.179,195.833 34.399 C 195.833 34.618,195.721 34.841,195.583 34.894 C 195.408 34.961,195.333 35.234,195.333 35.810 C 195.333 36.386,195.259 36.660,195.083 36.727 C 194.875 36.807,194.833 37.283,194.833 39.583 C 194.833 41.883,194.875 42.360,195.083 42.440 C 195.258 42.507,195.333 42.780,195.333 43.351 C 195.333 43.965,195.395 44.167,195.583 44.167 C 195.764 44.167,195.833 44.352,195.833 44.833 C 195.833 45.200,195.908 45.500,196.000 45.500 C 196.092 45.500,196.167 45.612,196.167 45.750 C 196.167 45.887,196.279 46.000,196.417 46.000 C 196.572 46.000,196.667 46.157,196.667 46.417 C 196.667 46.676,196.761 46.833,196.917 46.833 C 197.054 46.833,197.167 46.946,197.167 47.083 C 197.167 47.221,197.242 47.333,197.333 47.333 C 197.425 47.333,197.500 47.446,197.500 47.583 C 197.500 47.721,197.612 47.833,197.750 47.833 C 197.887 47.833,198.000 47.908,198.000 48.000 C 198.000 48.092,198.112 48.167,198.250 48.167 C 198.387 48.167,198.500 48.247,198.500 48.346 C 198.500 48.579,199.421 49.500,199.654 49.500 C 199.753 49.500,199.833 49.612,199.833 49.750 C 199.833 49.906,199.991 50.000,200.250 50.000 C 200.509 50.000,200.667 50.094,200.667 50.250 C 200.667 50.406,200.824 50.500,201.083 50.500 C 201.313 50.500,201.500 50.575,201.500 50.667 C 201.500 50.758,201.800 50.833,202.167 50.833 C 202.648 50.833,202.833 50.903,202.833 51.083 C 202.833 51.263,203.016 51.333,203.480 51.333 C 203.851 51.333,204.214 51.440,204.333 51.583 C 204.510 51.796,205.316 51.833,209.687 51.833 C 214.150 51.833,214.833 51.800,214.833 51.583 C 214.833 51.391,215.046 51.333,215.750 51.333 C 216.454 51.333,216.667 51.275,216.667 51.083 C 216.667 50.903,216.852 50.833,217.333 50.833 C 217.700 50.833,218.000 50.758,218.000 50.667 C 218.000 50.575,218.188 50.500,218.417 50.500 C 218.676 50.500,218.833 50.406,218.833 50.250 C 218.833 50.083,219.000 50.000,219.333 50.000 C 219.667 50.000,219.833 49.917,219.833 49.750 C 219.833 49.608,219.983 49.500,220.179 49.500 C 220.539 49.500,221.500 48.660,221.500 48.346 C 221.500 48.247,221.612 48.167,221.750 48.167 C 221.903 48.167,222.000 48.011,222.000 47.768 C 222.000 47.548,222.112 47.326,222.250 47.273 C 222.440 47.200,222.500 46.893,222.500 46.000 C 222.500 45.107,222.440 44.800,222.250 44.727 C 222.112 44.674,222.000 44.452,222.000 44.232 C 222.000 43.989,221.903 43.833,221.750 43.833 C 221.612 43.833,221.500 43.721,221.500 43.583 C 221.500 43.428,221.343 43.333,221.083 43.333 C 220.824 43.333,220.667 43.239,220.667 43.083 C 220.667 42.882,220.407 42.833,219.333 42.833 C 218.259 42.833,218.000 42.882,218.000 43.083 C 218.000 43.239,217.843 43.333,217.583 43.333 C 217.324 43.333,217.167 43.428,217.167 43.583 C 217.167 43.721,217.082 43.833,216.977 43.833 C 216.873 43.833,216.614 44.021,216.402 44.250 C 216.190 44.479,215.862 44.667,215.675 44.667 C 215.482 44.667,215.333 44.776,215.333 44.917 C 215.333 45.072,215.176 45.167,214.917 45.167 C 214.688 45.167,214.500 45.242,214.500 45.333 C 214.500 45.431,213.944 45.500,213.167 45.500 C 212.093 45.500,211.833 45.549,211.833 45.750 C 211.833 45.958,211.502 46.000,209.851 46.000 C 208.243 46.000,207.851 45.953,207.773 45.750 C 207.701 45.563,207.402 45.500,206.589 45.500 C 205.974 45.500,205.500 45.427,205.500 45.333 C 205.500 45.242,205.200 45.167,204.833 45.167 C 204.352 45.167,204.167 45.097,204.167 44.917 C 204.167 44.761,204.009 44.667,203.750 44.667 C 203.491 44.667,203.333 44.572,203.333 44.417 C 203.333 44.279,203.253 44.167,203.155 44.167 C 202.924 44.167,202.500 43.743,202.500 43.512 C 202.500 43.414,202.387 43.333,202.250 43.333 C 202.094 43.333,202.000 43.176,202.000 42.917 C 202.000 42.657,201.906 42.500,201.750 42.500 C 201.583 42.500,201.500 42.333,201.500 42.000 C 201.500 41.725,201.425 41.500,201.333 41.500 C 201.233 41.500,201.167 40.806,201.167 39.750 C 201.167 38.694,201.233 38.000,201.333 38.000 C 201.425 38.000,201.500 37.700,201.500 37.333 C 201.500 36.852,201.569 36.667,201.750 36.667 C 201.891 36.667,202.000 36.518,202.000 36.325 C 202.000 36.138,202.188 35.810,202.417 35.598 C 202.646 35.386,202.833 35.127,202.833 35.023 C 202.833 34.918,202.918 34.833,203.023 34.833 C 203.127 34.833,203.386 34.646,203.598 34.417 C 203.810 34.188,204.138 34.000,204.325 34.000 C 204.518 34.000,204.667 33.891,204.667 33.750 C 204.667 33.594,204.824 33.500,205.083 33.500 C 205.313 33.500,205.500 33.425,205.500 33.333 C 205.500 33.242,205.765 33.167,206.089 33.167 C 206.458 33.167,206.713 33.074,206.773 32.917 C 206.851 32.714,207.241 32.667,208.833 32.667 C 210.426 32.667,210.816 32.714,210.894 32.917 C 210.953 33.072,211.208 33.167,211.568 33.167 C 211.887 33.167,212.193 33.242,212.250 33.333 C 212.307 33.425,212.536 33.500,212.760 33.500 C 213.010 33.500,213.167 33.596,213.167 33.750 C 213.167 33.906,213.324 34.000,213.583 34.000 C 213.843 34.000,214.000 34.094,214.000 34.250 C 214.000 34.387,214.112 34.500,214.250 34.500 C 214.406 34.500,214.500 34.657,214.500 34.917 C 214.500 35.146,214.575 35.333,214.667 35.333 C 214.758 35.333,214.833 35.633,214.833 36.000 C 214.833 36.481,214.903 36.667,215.083 36.667 C 215.239 36.667,215.333 36.824,215.333 37.083 C 215.333 37.343,215.428 37.500,215.583 37.500 C 215.721 37.500,215.833 37.612,215.833 37.750 C 215.833 37.906,215.991 38.000,216.250 38.000 C 216.509 38.000,216.667 38.094,216.667 38.250 C 216.667 38.451,216.926 38.500,218.000 38.500 C 219.074 38.500,219.333 38.451,219.333 38.250 C 219.333 38.094,219.491 38.000,219.750 38.000 C 220.009 38.000,220.167 37.906,220.167 37.750 C 220.167 37.612,220.279 37.500,220.417 37.500 C 220.569 37.500,220.667 37.345,220.667 37.101 C 220.667 36.882,220.779 36.659,220.917 36.606 C 221.128 36.525,221.167 35.957,221.167 32.917 C 221.167 29.876,221.128 29.308,220.917 29.227 C 220.774 29.172,220.667 28.924,220.667 28.649 C 220.667 28.372,220.577 28.167,220.456 28.167 C 220.340 28.167,220.105 27.979,219.933 27.750 C 219.547 27.236,216.667 27.089,216.667 27.583 C 216.667 27.764,216.481 27.833,216.000 27.833 C 215.519 27.833,215.333 27.764,215.333 27.583 C 215.333 27.404,215.150 27.333,214.684 27.333 C 214.262 27.333,214.002 27.246,213.940 27.083 C 213.866 26.892,213.551 26.833,212.589 26.833 C 211.863 26.833,211.333 26.763,211.333 26.667 C 211.333 26.563,210.333 26.500,208.667 26.500 C 207.000 26.500,206.000 26.563,206.000 26.667 M85.560 32.917 C 85.620 33.074,85.875 33.167,86.245 33.167 C 86.568 33.167,86.833 33.242,86.833 33.333 C 86.833 33.425,87.058 33.500,87.333 33.500 C 87.608 33.500,87.833 33.581,87.833 33.679 C 87.833 33.913,88.754 34.833,88.987 34.833 C 89.086 34.833,89.167 34.903,89.167 34.987 C 89.167 35.187,90.146 36.167,90.346 36.167 C 90.431 36.167,90.500 36.392,90.500 36.667 C 90.500 36.942,90.575 37.167,90.667 37.167 C 90.758 37.167,90.833 37.354,90.833 37.583 C 90.833 37.843,90.928 38.000,91.083 38.000 C 91.284 38.000,91.333 38.257,91.333 39.316 C 91.333 40.331,91.276 40.653,91.083 40.727 C 90.926 40.787,90.833 41.042,90.833 41.411 C 90.833 41.735,90.758 42.000,90.667 42.000 C 90.575 42.000,90.500 42.112,90.500 42.250 C 90.500 42.387,90.431 42.500,90.346 42.500 C 90.146 42.500,89.167 43.479,89.167 43.679 C 89.167 43.764,89.082 43.833,88.977 43.833 C 88.873 43.833,88.614 44.021,88.402 44.250 C 88.190 44.479,87.862 44.667,87.675 44.667 C 87.482 44.667,87.333 44.776,87.333 44.917 C 87.333 45.072,87.176 45.167,86.917 45.167 C 86.688 45.167,86.500 45.242,86.500 45.333 C 86.500 45.425,86.087 45.500,85.583 45.500 C 84.880 45.500,84.667 45.558,84.667 45.750 C 84.667 45.941,84.456 46.000,83.768 46.000 C 83.123 46.000,82.842 45.929,82.773 45.750 C 82.702 45.566,82.412 45.500,81.672 45.500 C 81.113 45.500,80.667 45.426,80.667 45.333 C 80.667 45.242,80.479 45.167,80.250 45.167 C 79.991 45.167,79.833 45.072,79.833 44.917 C 79.833 44.750,79.667 44.667,79.333 44.667 C 79.058 44.667,78.833 44.586,78.833 44.488 C 78.833 44.257,78.409 43.833,78.179 43.833 C 78.080 43.833,78.000 43.721,78.000 43.583 C 78.000 43.446,77.887 43.333,77.750 43.333 C 77.612 43.333,77.500 43.253,77.500 43.155 C 77.500 42.924,77.076 42.500,76.845 42.500 C 76.747 42.500,76.667 42.310,76.667 42.078 C 76.667 41.846,76.554 41.613,76.417 41.560 C 76.279 41.508,76.167 41.285,76.167 41.066 C 76.167 40.846,76.092 40.667,76.000 40.667 C 75.906 40.667,75.833 40.194,75.833 39.583 C 75.833 38.972,75.906 38.500,76.000 38.500 C 76.092 38.500,76.167 38.200,76.167 37.833 C 76.167 37.352,76.236 37.167,76.417 37.167 C 76.583 37.167,76.667 37.000,76.667 36.667 C 76.667 36.392,76.747 36.167,76.845 36.167 C 77.076 36.167,77.500 35.743,77.500 35.512 C 77.500 35.414,77.612 35.333,77.750 35.333 C 77.887 35.333,78.000 35.221,78.000 35.083 C 78.000 34.946,78.080 34.833,78.179 34.833 C 78.409 34.833,78.833 34.409,78.833 34.179 C 78.833 34.080,79.023 34.000,79.255 34.000 C 79.487 34.000,79.720 33.887,79.773 33.750 C 79.826 33.612,80.048 33.500,80.268 33.500 C 80.487 33.500,80.667 33.425,80.667 33.333 C 80.667 33.242,80.932 33.167,81.255 33.167 C 81.625 33.167,81.880 33.074,81.940 32.917 C 82.016 32.717,82.380 32.667,83.750 32.667 C 85.120 32.667,85.484 32.717,85.560 32.917 M178.000 41.333 C 178.000 41.433,178.639 41.500,179.583 41.500 L 181.167 41.500 181.167 42.417 C 181.167 43.120,181.109 43.333,180.917 43.333 C 180.779 43.333,180.667 43.446,180.667 43.583 C 180.667 43.739,180.509 43.833,180.250 43.833 C 180.021 43.833,179.833 43.908,179.833 44.000 C 179.833 44.092,179.643 44.167,179.411 44.167 C 179.179 44.167,178.946 44.279,178.894 44.417 C 178.834 44.572,178.581 44.667,178.227 44.667 C 177.873 44.667,177.620 44.762,177.560 44.917 C 177.498 45.080,177.238 45.167,176.816 45.167 C 176.459 45.167,176.167 45.242,176.167 45.333 C 176.167 45.425,175.792 45.500,175.333 45.500 C 174.704 45.500,174.500 45.561,174.500 45.750 C 174.500 45.948,174.261 46.000,173.351 46.000 C 172.484 46.000,172.179 45.939,172.106 45.750 C 172.041 45.579,171.773 45.500,171.255 45.500 C 170.840 45.500,170.500 45.425,170.500 45.333 C 170.500 45.242,170.387 45.167,170.250 45.167 C 170.112 45.167,170.000 45.054,170.000 44.917 C 170.000 44.779,169.887 44.667,169.750 44.667 C 169.594 44.667,169.500 44.509,169.500 44.250 C 169.500 43.991,169.594 43.833,169.750 43.833 C 169.887 43.833,170.000 43.721,170.000 43.583 C 170.000 43.446,170.112 43.333,170.250 43.333 C 170.387 43.333,170.500 43.253,170.500 43.155 C 170.500 42.859,170.953 42.500,171.327 42.500 C 171.519 42.500,171.720 42.387,171.773 42.250 C 171.826 42.112,172.048 42.000,172.268 42.000 C 172.511 42.000,172.667 41.903,172.667 41.750 C 172.667 41.558,172.880 41.500,173.583 41.500 C 174.088 41.500,174.500 41.425,174.500 41.333 C 174.500 41.233,175.194 41.167,176.250 41.167 C 177.306 41.167,178.000 41.233,178.000 41.333 M325.727 125.083 C 325.612 125.383,325.762 125.833,325.977 125.833 C 326.192 125.833,326.342 125.383,326.227 125.083 C 326.174 124.946,326.062 124.833,325.977 124.833 C 325.892 124.833,325.780 124.946,325.727 125.083 " stroke="none" fill="#fbfbfb" fill-rule="evenodd"></path></g></svg>